<mxfile host="www.draw.io" modified="2019-12-05T23:14:35.622Z" agent="Mozilla/5.0 (Macintosh; Intel Mac OS X 10.15; rv:70.0) Gecko/20100101 Firefox/70.0" etag="Bz5qjBcMJwbvSUw7NLdA" version="12.3.6" type="github" pages="4">
  <diagram id="9Qdbks4LsBm_zmxqTYXY" name="Page-1">
    <mxGraphModel dx="1172" dy="764" grid="1" gridSize="10" guides="1" tooltips="1" connect="1" arrows="1" fold="1" page="1" pageScale="1" pageWidth="850" pageHeight="1100" math="0" shadow="0">
      <root>
        <mxCell id="0"/>
        <mxCell id="1" parent="0"/>
        <mxCell id="6UOuq9QrrFTKUcESdB24-1" value="RequestSigner" style="outlineConnect=0;fontColor=#232F3E;gradientColor=none;fillColor=#D05C17;strokeColor=none;dashed=0;verticalLabelPosition=bottom;verticalAlign=top;align=center;html=1;fontSize=12;fontStyle=0;aspect=fixed;pointerEvents=1;shape=mxgraph.aws4.lambda_function;" parent="1" vertex="1">
          <mxGeometry x="195" y="461" width="78" height="78" as="geometry"/>
        </mxCell>
        <mxCell id="6UOuq9QrrFTKUcESdB24-2" value="MetadataEraser" style="outlineConnect=0;fontColor=#232F3E;gradientColor=none;fillColor=#D05C17;strokeColor=none;dashed=0;verticalLabelPosition=bottom;verticalAlign=top;align=center;html=1;fontSize=12;fontStyle=0;aspect=fixed;pointerEvents=1;shape=mxgraph.aws4.lambda_function;" parent="1" vertex="1">
          <mxGeometry x="356" y="751" width="78" height="78" as="geometry"/>
        </mxCell>
        <mxCell id="6UOuq9QrrFTKUcESdB24-3" value="MetadataFetcher" style="outlineConnect=0;fontColor=#232F3E;gradientColor=none;fillColor=#D05C17;strokeColor=none;dashed=0;verticalLabelPosition=bottom;verticalAlign=top;align=center;html=1;fontSize=12;fontStyle=0;aspect=fixed;pointerEvents=1;shape=mxgraph.aws4.lambda_function;" parent="1" vertex="1">
          <mxGeometry x="156" y="651" width="78" height="78" as="geometry"/>
        </mxCell>
        <mxCell id="6UOuq9QrrFTKUcESdB24-4" value="TemplateLister" style="outlineConnect=0;fontColor=#232F3E;gradientColor=none;fillColor=#D05C17;strokeColor=none;dashed=0;verticalLabelPosition=bottom;verticalAlign=top;align=center;html=1;fontSize=12;fontStyle=0;aspect=fixed;pointerEvents=1;shape=mxgraph.aws4.lambda_function;" parent="1" vertex="1">
          <mxGeometry x="382" y="411" width="78" height="78" as="geometry"/>
        </mxCell>
        <mxCell id="6UOuq9QrrFTKUcESdB24-5" value="PDFRenderer" style="outlineConnect=0;fontColor=#232F3E;gradientColor=none;fillColor=#D05C17;strokeColor=none;dashed=0;verticalLabelPosition=bottom;verticalAlign=top;align=center;html=1;fontSize=12;fontStyle=0;aspect=fixed;pointerEvents=1;shape=mxgraph.aws4.lambda_function;" parent="1" vertex="1">
          <mxGeometry x="616" y="631" width="78" height="78" as="geometry"/>
        </mxCell>
        <mxCell id="6UOuq9QrrFTKUcESdB24-6" value="Templates" style="outlineConnect=0;fontColor=#232F3E;gradientColor=none;fillColor=#277116;strokeColor=none;dashed=0;verticalLabelPosition=bottom;verticalAlign=top;align=center;html=1;fontSize=12;fontStyle=0;aspect=fixed;pointerEvents=1;shape=mxgraph.aws4.bucket_with_objects;" parent="1" vertex="1">
          <mxGeometry x="456" y="601" width="75" height="78" as="geometry"/>
        </mxCell>
        <mxCell id="6UOuq9QrrFTKUcESdB24-7" value="Metadata" style="outlineConnect=0;fontColor=#232F3E;gradientColor=none;fillColor=#3334B9;strokeColor=none;dashed=0;verticalLabelPosition=bottom;verticalAlign=top;align=center;html=1;fontSize=12;fontStyle=0;aspect=fixed;pointerEvents=1;shape=mxgraph.aws4.table;" parent="1" vertex="1">
          <mxGeometry x="326" y="553" width="78" height="78" as="geometry"/>
        </mxCell>
        <mxCell id="6UOuq9QrrFTKUcESdB24-8" value="API" style="outlineConnect=0;fontColor=#232F3E;gradientColor=#945DF2;gradientDirection=north;fillColor=#5A30B5;strokeColor=#ffffff;dashed=0;verticalLabelPosition=bottom;verticalAlign=top;align=center;html=1;fontSize=12;fontStyle=0;aspect=fixed;shape=mxgraph.aws4.resourceIcon;resIcon=mxgraph.aws4.api_gateway;" parent="1" vertex="1">
          <mxGeometry x="606" y="411" width="78" height="78" as="geometry"/>
        </mxCell>
        <mxCell id="6UOuq9QrrFTKUcESdB24-11" value="&lt;font style=&quot;font-size: 30px&quot;&gt;Einige der benötigten Ressourcen&lt;br&gt;&lt;/font&gt;" style="text;html=1;align=center;verticalAlign=middle;resizable=0;points=[];;autosize=1;" parent="1" vertex="1">
          <mxGeometry x="190" y="270" width="470" height="20" as="geometry"/>
        </mxCell>
        <mxCell id="sgw2mNT5dNJipaoT5aEI-1" value="Gerenderte PDF" style="outlineConnect=0;fontColor=#232F3E;gradientColor=none;fillColor=#277116;strokeColor=none;dashed=0;verticalLabelPosition=bottom;verticalAlign=top;align=center;html=1;fontSize=12;fontStyle=0;aspect=fixed;pointerEvents=1;shape=mxgraph.aws4.bucket_with_objects;" parent="1" vertex="1">
          <mxGeometry x="531" y="760" width="75" height="78" as="geometry"/>
        </mxCell>
      </root>
    </mxGraphModel>
  </diagram>
  <diagram id="EbwEAs1AU630HeVz_caJ" name="Page-2">
    <mxGraphModel dx="1172" dy="764" grid="1" gridSize="10" guides="1" tooltips="1" connect="1" arrows="1" fold="1" page="1" pageScale="1" pageWidth="850" pageHeight="1100" math="0" shadow="0">
      <root>
        <mxCell id="W5vRPKdQ2K2m3OfhsC5C-0"/>
        <mxCell id="W5vRPKdQ2K2m3OfhsC5C-1" parent="W5vRPKdQ2K2m3OfhsC5C-0"/>
        <mxCell id="W5vRPKdQ2K2m3OfhsC5C-20" value="Signierten Request&lt;br&gt;&lt;div&gt;erstellen&lt;/div&gt;" style="edgeStyle=orthogonalEdgeStyle;rounded=0;orthogonalLoop=1;jettySize=auto;html=1;endArrow=open;endFill=0;" parent="W5vRPKdQ2K2m3OfhsC5C-1" source="W5vRPKdQ2K2m3OfhsC5C-2" target="W5vRPKdQ2K2m3OfhsC5C-7" edge="1">
          <mxGeometry relative="1" as="geometry">
            <mxPoint x="509" y="494.07480997466337" as="targetPoint"/>
          </mxGeometry>
        </mxCell>
        <mxCell id="W5vRPKdQ2K2m3OfhsC5C-2" value="RequestSigner" style="outlineConnect=0;fontColor=#232F3E;gradientColor=none;fillColor=#D05C17;strokeColor=none;dashed=0;verticalLabelPosition=bottom;verticalAlign=top;align=center;html=1;fontSize=12;fontStyle=0;aspect=fixed;pointerEvents=1;shape=mxgraph.aws4.lambda_function;" parent="W5vRPKdQ2K2m3OfhsC5C-1" vertex="1">
          <mxGeometry x="470" y="334" width="78" height="78" as="geometry"/>
        </mxCell>
        <mxCell id="W5vRPKdQ2K2m3OfhsC5C-18" value="Metadaten&lt;br&gt;speichern" style="edgeStyle=orthogonalEdgeStyle;rounded=0;orthogonalLoop=1;jettySize=auto;html=1;endArrow=open;endFill=0;" parent="W5vRPKdQ2K2m3OfhsC5C-1" source="W5vRPKdQ2K2m3OfhsC5C-4" target="W5vRPKdQ2K2m3OfhsC5C-8" edge="1">
          <mxGeometry relative="1" as="geometry"/>
        </mxCell>
        <mxCell id="W5vRPKdQ2K2m3OfhsC5C-4" value="MetadataFetcher" style="outlineConnect=0;fontColor=#232F3E;gradientColor=none;fillColor=#D05C17;strokeColor=none;dashed=0;verticalLabelPosition=bottom;verticalAlign=top;align=center;html=1;fontSize=12;fontStyle=0;aspect=fixed;pointerEvents=1;shape=mxgraph.aws4.lambda_function;" parent="W5vRPKdQ2K2m3OfhsC5C-1" vertex="1">
          <mxGeometry x="470" y="758" width="78" height="78" as="geometry"/>
        </mxCell>
        <mxCell id="W5vRPKdQ2K2m3OfhsC5C-16" value="Triggert&lt;br&gt;Lambda&lt;br&gt;zum ermitteln&lt;br&gt;der Metadaten" style="edgeStyle=orthogonalEdgeStyle;rounded=0;orthogonalLoop=1;jettySize=auto;html=1;endArrow=open;endFill=0;" parent="W5vRPKdQ2K2m3OfhsC5C-1" source="W5vRPKdQ2K2m3OfhsC5C-7" target="W5vRPKdQ2K2m3OfhsC5C-4" edge="1">
          <mxGeometry relative="1" as="geometry"/>
        </mxCell>
        <mxCell id="W5vRPKdQ2K2m3OfhsC5C-7" value="Templates" style="outlineConnect=0;fontColor=#232F3E;gradientColor=none;fillColor=#277116;strokeColor=none;dashed=0;verticalLabelPosition=bottom;verticalAlign=top;align=center;html=1;fontSize=12;fontStyle=0;aspect=fixed;pointerEvents=1;shape=mxgraph.aws4.bucket_with_objects;" parent="W5vRPKdQ2K2m3OfhsC5C-1" vertex="1">
          <mxGeometry x="471.5" y="514" width="75" height="78" as="geometry"/>
        </mxCell>
        <mxCell id="W5vRPKdQ2K2m3OfhsC5C-8" value="Metadata" style="outlineConnect=0;fontColor=#232F3E;gradientColor=none;fillColor=#3334B9;strokeColor=none;dashed=0;verticalLabelPosition=bottom;verticalAlign=top;align=center;html=1;fontSize=12;fontStyle=0;aspect=fixed;pointerEvents=1;shape=mxgraph.aws4.table;" parent="W5vRPKdQ2K2m3OfhsC5C-1" vertex="1">
          <mxGeometry x="652.5" y="758" width="78" height="78" as="geometry"/>
        </mxCell>
        <mxCell id="W5vRPKdQ2K2m3OfhsC5C-14" style="edgeStyle=orthogonalEdgeStyle;rounded=0;orthogonalLoop=1;jettySize=auto;html=1;endArrow=open;endFill=0;" parent="W5vRPKdQ2K2m3OfhsC5C-1" source="W5vRPKdQ2K2m3OfhsC5C-9" target="W5vRPKdQ2K2m3OfhsC5C-2" edge="1">
          <mxGeometry relative="1" as="geometry"/>
        </mxCell>
        <mxCell id="W5vRPKdQ2K2m3OfhsC5C-9" value="API" style="outlineConnect=0;fontColor=#232F3E;gradientColor=#945DF2;gradientDirection=north;fillColor=#5A30B5;strokeColor=#ffffff;dashed=0;verticalLabelPosition=bottom;verticalAlign=top;align=center;html=1;fontSize=12;fontStyle=0;aspect=fixed;shape=mxgraph.aws4.resourceIcon;resIcon=mxgraph.aws4.api_gateway;" parent="W5vRPKdQ2K2m3OfhsC5C-1" vertex="1">
          <mxGeometry x="326.5" y="334" width="78" height="78" as="geometry"/>
        </mxCell>
        <mxCell id="W5vRPKdQ2K2m3OfhsC5C-10" value="&lt;font style=&quot;font-size: 30px&quot;&gt;&lt;font style=&quot;font-size: 30px&quot;&gt;Schematischer &lt;/font&gt;Upload-Prozess&lt;br&gt;&lt;/font&gt;" style="text;html=1;align=center;verticalAlign=middle;resizable=0;points=[];;autosize=1;" parent="W5vRPKdQ2K2m3OfhsC5C-1" vertex="1">
          <mxGeometry x="205" y="263" width="440" height="20" as="geometry"/>
        </mxCell>
        <mxCell id="W5vRPKdQ2K2m3OfhsC5C-13" value="Signierten&lt;br&gt;Request für&lt;br&gt;Upload&lt;br&gt;anfordern" style="edgeStyle=orthogonalEdgeStyle;rounded=0;orthogonalLoop=1;jettySize=auto;html=1;endArrow=open;endFill=0;" parent="W5vRPKdQ2K2m3OfhsC5C-1" source="W5vRPKdQ2K2m3OfhsC5C-11" target="W5vRPKdQ2K2m3OfhsC5C-9" edge="1">
          <mxGeometry relative="1" as="geometry">
            <Array as="points">
              <mxPoint x="157.5" y="373"/>
            </Array>
          </mxGeometry>
        </mxCell>
        <mxCell id="W5vRPKdQ2K2m3OfhsC5C-15" value="Mit signiertem&lt;br&gt;Request direkt&lt;br&gt;in S3 laden" style="edgeStyle=orthogonalEdgeStyle;rounded=0;orthogonalLoop=1;jettySize=auto;html=1;endArrow=open;endFill=0;" parent="W5vRPKdQ2K2m3OfhsC5C-1" source="W5vRPKdQ2K2m3OfhsC5C-11" target="W5vRPKdQ2K2m3OfhsC5C-7" edge="1">
          <mxGeometry relative="1" as="geometry">
            <Array as="points">
              <mxPoint x="339" y="553"/>
              <mxPoint x="339" y="553"/>
            </Array>
          </mxGeometry>
        </mxCell>
        <mxCell id="W5vRPKdQ2K2m3OfhsC5C-11" value="User" style="outlineConnect=0;fontColor=#232F3E;gradientColor=none;fillColor=#232F3E;strokeColor=none;dashed=0;verticalLabelPosition=bottom;verticalAlign=top;align=center;html=1;fontSize=12;fontStyle=0;aspect=fixed;pointerEvents=1;shape=mxgraph.aws4.user;" parent="W5vRPKdQ2K2m3OfhsC5C-1" vertex="1">
          <mxGeometry x="119" y="412" width="78" height="78" as="geometry"/>
        </mxCell>
      </root>
    </mxGraphModel>
  </diagram>
  <diagram id="-xuB2G90b-anTUslg2Pi" name="Page-3">
    <mxGraphModel dx="1172" dy="764" grid="1" gridSize="10" guides="1" tooltips="1" connect="1" arrows="1" fold="1" page="1" pageScale="1" pageWidth="850" pageHeight="1100" math="0" shadow="0">
      <root>
        <mxCell id="KzhyzD0hDyE2x0CUrDqL-0"/>
        <mxCell id="KzhyzD0hDyE2x0CUrDqL-1" parent="KzhyzD0hDyE2x0CUrDqL-0"/>
        <mxCell id="YG_aa66S31PVs0JeuX5D-3" style="edgeStyle=orthogonalEdgeStyle;rounded=0;orthogonalLoop=1;jettySize=auto;html=1;endArrow=open;endFill=0;" parent="KzhyzD0hDyE2x0CUrDqL-1" source="KzhyzD0hDyE2x0CUrDqL-6" target="KzhyzD0hDyE2x0CUrDqL-7" edge="1">
          <mxGeometry relative="1" as="geometry"/>
        </mxCell>
        <mxCell id="YG_aa66S31PVs0JeuX5D-9" value="&lt;div&gt;Generiertes PDF&lt;/div&gt;&lt;div&gt;in Bucket ablegen&lt;/div&gt;&lt;div&gt;und signierten&lt;br&gt;&lt;/div&gt;Request erstellen" style="edgeStyle=orthogonalEdgeStyle;rounded=0;orthogonalLoop=1;jettySize=auto;html=1;endArrow=open;endFill=0;" parent="KzhyzD0hDyE2x0CUrDqL-1" source="KzhyzD0hDyE2x0CUrDqL-6" target="Qotc2iFMHnhx-Tjhscu7-0" edge="1">
          <mxGeometry relative="1" as="geometry">
            <Array as="points">
              <mxPoint x="512" y="645"/>
            </Array>
          </mxGeometry>
        </mxCell>
        <mxCell id="KzhyzD0hDyE2x0CUrDqL-6" value="PDFRenderer" style="outlineConnect=0;fontColor=#232F3E;gradientColor=none;fillColor=#D05C17;strokeColor=none;dashed=0;verticalLabelPosition=bottom;verticalAlign=top;align=center;html=1;fontSize=12;fontStyle=0;aspect=fixed;pointerEvents=1;shape=mxgraph.aws4.lambda_function;" parent="KzhyzD0hDyE2x0CUrDqL-1" vertex="1">
          <mxGeometry x="472" y="470" width="78" height="78" as="geometry"/>
        </mxCell>
        <mxCell id="KzhyzD0hDyE2x0CUrDqL-7" value="Templates" style="outlineConnect=0;fontColor=#232F3E;gradientColor=none;fillColor=#277116;strokeColor=none;dashed=0;verticalLabelPosition=bottom;verticalAlign=top;align=center;html=1;fontSize=12;fontStyle=0;aspect=fixed;pointerEvents=1;shape=mxgraph.aws4.bucket_with_objects;" parent="KzhyzD0hDyE2x0CUrDqL-1" vertex="1">
          <mxGeometry x="642.5" y="470" width="75" height="78" as="geometry"/>
        </mxCell>
        <mxCell id="YG_aa66S31PVs0JeuX5D-2" style="edgeStyle=orthogonalEdgeStyle;rounded=0;orthogonalLoop=1;jettySize=auto;html=1;endArrow=open;endFill=0;" parent="KzhyzD0hDyE2x0CUrDqL-1" source="KzhyzD0hDyE2x0CUrDqL-9" target="KzhyzD0hDyE2x0CUrDqL-6" edge="1">
          <mxGeometry relative="1" as="geometry"/>
        </mxCell>
        <mxCell id="KzhyzD0hDyE2x0CUrDqL-9" value="API" style="outlineConnect=0;fontColor=#232F3E;gradientColor=#945DF2;gradientDirection=north;fillColor=#5A30B5;strokeColor=#ffffff;dashed=0;verticalLabelPosition=bottom;verticalAlign=top;align=center;html=1;fontSize=12;fontStyle=0;aspect=fixed;shape=mxgraph.aws4.resourceIcon;resIcon=mxgraph.aws4.api_gateway;" parent="KzhyzD0hDyE2x0CUrDqL-1" vertex="1">
          <mxGeometry x="301.5" y="470" width="78" height="78" as="geometry"/>
        </mxCell>
        <mxCell id="KzhyzD0hDyE2x0CUrDqL-10" value="&lt;font style=&quot;font-size: 30px&quot;&gt;Schematischer PDF-Render-Prozess&lt;br&gt;&lt;/font&gt;" style="text;html=1;align=center;verticalAlign=middle;resizable=0;points=[];;autosize=1;" parent="KzhyzD0hDyE2x0CUrDqL-1" vertex="1">
          <mxGeometry x="170" y="333" width="510" height="20" as="geometry"/>
        </mxCell>
        <mxCell id="Qotc2iFMHnhx-Tjhscu7-0" value="Gerenderte PDF" style="outlineConnect=0;fontColor=#232F3E;gradientColor=none;fillColor=#277116;strokeColor=none;dashed=0;verticalLabelPosition=bottom;verticalAlign=top;align=center;html=1;fontSize=12;fontStyle=0;aspect=fixed;pointerEvents=1;shape=mxgraph.aws4.bucket_with_objects;" parent="KzhyzD0hDyE2x0CUrDqL-1" vertex="1">
          <mxGeometry x="303" y="606" width="75" height="78" as="geometry"/>
        </mxCell>
        <mxCell id="YG_aa66S31PVs0JeuX5D-1" value="PDF-Rendering&lt;br&gt;anfordern" style="edgeStyle=orthogonalEdgeStyle;rounded=0;orthogonalLoop=1;jettySize=auto;html=1;endArrow=open;endFill=0;" parent="KzhyzD0hDyE2x0CUrDqL-1" source="YG_aa66S31PVs0JeuX5D-0" target="KzhyzD0hDyE2x0CUrDqL-9" edge="1">
          <mxGeometry relative="1" as="geometry"/>
        </mxCell>
        <mxCell id="YG_aa66S31PVs0JeuX5D-12" value="Holt mit signiertem&lt;br&gt;Request das PDF" style="edgeStyle=orthogonalEdgeStyle;rounded=0;orthogonalLoop=1;jettySize=auto;html=1;endArrow=open;endFill=0;" parent="KzhyzD0hDyE2x0CUrDqL-1" source="YG_aa66S31PVs0JeuX5D-0" target="Qotc2iFMHnhx-Tjhscu7-0" edge="1">
          <mxGeometry relative="1" as="geometry">
            <Array as="points">
              <mxPoint x="171" y="645"/>
            </Array>
          </mxGeometry>
        </mxCell>
        <mxCell id="YG_aa66S31PVs0JeuX5D-0" value="User" style="outlineConnect=0;fontColor=#232F3E;gradientColor=none;fillColor=#232F3E;strokeColor=none;dashed=0;verticalLabelPosition=bottom;verticalAlign=top;align=center;html=1;fontSize=12;fontStyle=0;aspect=fixed;pointerEvents=1;shape=mxgraph.aws4.user;" parent="KzhyzD0hDyE2x0CUrDqL-1" vertex="1">
          <mxGeometry x="131" y="470" width="78" height="78" as="geometry"/>
        </mxCell>
      </root>
    </mxGraphModel>
  </diagram>
  <diagram id="o9p9yagWdBYBXclUvuaZ" name="Page-4">
    <mxGraphModel dx="1172" dy="764" grid="1" gridSize="10" guides="1" tooltips="1" connect="1" arrows="1" fold="1" page="1" pageScale="1" pageWidth="850" pageHeight="1100" math="0" shadow="0">
      <root>
        <mxCell id="ivkLYEPxORehv7g5UBXh-0"/>
        <mxCell id="ivkLYEPxORehv7g5UBXh-1" parent="ivkLYEPxORehv7g5UBXh-0"/>
        <mxCell id="XQgYeI3zkvSENr_BkiZQ-4" style="edgeStyle=orthogonalEdgeStyle;rounded=0;orthogonalLoop=1;jettySize=auto;html=1;endArrow=open;endFill=0;" parent="ivkLYEPxORehv7g5UBXh-1" source="j4Q0BAvEiIPrYrY5583v-3" target="j4Q0BAvEiIPrYrY5583v-6" edge="1">
          <mxGeometry relative="1" as="geometry"/>
        </mxCell>
        <mxCell id="XQgYeI3zkvSENr_BkiZQ-5" style="edgeStyle=orthogonalEdgeStyle;rounded=0;orthogonalLoop=1;jettySize=auto;html=1;endArrow=open;endFill=0;" parent="ivkLYEPxORehv7g5UBXh-1" source="j4Q0BAvEiIPrYrY5583v-3" target="j4Q0BAvEiIPrYrY5583v-5" edge="1">
          <mxGeometry relative="1" as="geometry"/>
        </mxCell>
        <mxCell id="j4Q0BAvEiIPrYrY5583v-3" value="TemplateLister" style="outlineConnect=0;fontColor=#232F3E;gradientColor=none;fillColor=#D05C17;strokeColor=none;dashed=0;verticalLabelPosition=bottom;verticalAlign=top;align=center;html=1;fontSize=12;fontStyle=0;aspect=fixed;pointerEvents=1;shape=mxgraph.aws4.lambda_function;" parent="ivkLYEPxORehv7g5UBXh-1" vertex="1">
          <mxGeometry x="476" y="550.5" width="78" height="78" as="geometry"/>
        </mxCell>
        <mxCell id="XQgYeI3zkvSENr_BkiZQ-3" style="edgeStyle=orthogonalEdgeStyle;rounded=0;orthogonalLoop=1;jettySize=auto;html=1;endArrow=open;endFill=0;" parent="ivkLYEPxORehv7g5UBXh-1" source="j4Q0BAvEiIPrYrY5583v-7" target="j4Q0BAvEiIPrYrY5583v-3" edge="1">
          <mxGeometry relative="1" as="geometry"/>
        </mxCell>
        <mxCell id="j4Q0BAvEiIPrYrY5583v-7" value="API" style="outlineConnect=0;fontColor=#232F3E;gradientColor=#945DF2;gradientDirection=north;fillColor=#5A30B5;strokeColor=#ffffff;dashed=0;verticalLabelPosition=bottom;verticalAlign=top;align=center;html=1;fontSize=12;fontStyle=0;aspect=fixed;shape=mxgraph.aws4.resourceIcon;resIcon=mxgraph.aws4.api_gateway;" parent="ivkLYEPxORehv7g5UBXh-1" vertex="1">
          <mxGeometry x="296" y="550.5" width="78" height="78" as="geometry"/>
        </mxCell>
        <mxCell id="j4Q0BAvEiIPrYrY5583v-8" value="&lt;font style=&quot;font-size: 30px&quot;&gt;Schematischer Templatelisting-Prozess&lt;br&gt;&lt;/font&gt;" style="text;html=1;align=center;verticalAlign=middle;resizable=0;points=[];;autosize=1;" parent="ivkLYEPxORehv7g5UBXh-1" vertex="1">
          <mxGeometry x="155" y="398" width="540" height="20" as="geometry"/>
        </mxCell>
        <mxCell id="XQgYeI3zkvSENr_BkiZQ-2" style="edgeStyle=orthogonalEdgeStyle;rounded=0;orthogonalLoop=1;jettySize=auto;html=1;endArrow=open;endFill=0;" parent="ivkLYEPxORehv7g5UBXh-1" source="XQgYeI3zkvSENr_BkiZQ-0" target="j4Q0BAvEiIPrYrY5583v-7" edge="1">
          <mxGeometry relative="1" as="geometry"/>
        </mxCell>
        <mxCell id="XQgYeI3zkvSENr_BkiZQ-0" value="User" style="outlineConnect=0;fontColor=#232F3E;gradientColor=none;fillColor=#232F3E;strokeColor=none;dashed=0;verticalLabelPosition=bottom;verticalAlign=top;align=center;html=1;fontSize=12;fontStyle=0;aspect=fixed;pointerEvents=1;shape=mxgraph.aws4.user;" parent="ivkLYEPxORehv7g5UBXh-1" vertex="1">
          <mxGeometry x="116" y="550.5" width="78" height="78" as="geometry"/>
        </mxCell>
        <mxCell id="XQgYeI3zkvSENr_BkiZQ-1" value="" style="group" parent="ivkLYEPxORehv7g5UBXh-1" vertex="1" connectable="0">
          <mxGeometry x="656" y="478" width="78" height="223" as="geometry"/>
        </mxCell>
        <mxCell id="j4Q0BAvEiIPrYrY5583v-5" value="Templates" style="outlineConnect=0;fontColor=#232F3E;gradientColor=none;fillColor=#277116;strokeColor=none;dashed=0;verticalLabelPosition=bottom;verticalAlign=top;align=center;html=1;fontSize=12;fontStyle=0;aspect=fixed;pointerEvents=1;shape=mxgraph.aws4.bucket_with_objects;" parent="XQgYeI3zkvSENr_BkiZQ-1" vertex="1">
          <mxGeometry y="145" width="75" height="78" as="geometry"/>
        </mxCell>
        <mxCell id="j4Q0BAvEiIPrYrY5583v-6" value="Metadata" style="outlineConnect=0;fontColor=#232F3E;gradientColor=none;fillColor=#3334B9;strokeColor=none;dashed=0;verticalLabelPosition=bottom;verticalAlign=top;align=center;html=1;fontSize=12;fontStyle=0;aspect=fixed;pointerEvents=1;shape=mxgraph.aws4.table;" parent="XQgYeI3zkvSENr_BkiZQ-1" vertex="1">
          <mxGeometry width="78" height="78" as="geometry"/>
        </mxCell>
      </root>
    </mxGraphModel>
  </diagram>
</mxfile>
